<svg width="96" height="136" viewBox="0 0 96 136" fill="none" xmlns="http://www.w3.org/2000/svg">
<path d="M64.9355 70.2428L77.0323 59.3187L83.3226 58.8221L90.5806 65.7738L93 84.1463L91.5484 102.022L77.0323 118.488L68.5 127.346L54.2903 131.988H43L24.5 127.346L10.7419 109.967L3 94.5738L14 84.1463L24.5 82.488L37.8387 87.6221L52 91.988L61 82.488L64.9355 70.2428Z" fill="url(#paint0_linear_2_108)"/>
<path fill-rule="evenodd" clip-rule="evenodd" d="M96 82.9902C96 112.168 74.5097 135.822 48 135.822C21.4903 135.822 0 112.168 0 82.9902C0 56.8605 38.4943 10.1636 46.5377 0.691502C47.3206 -0.230495 48.6794 -0.230503 49.4623 0.691494C57.5057 10.1636 96 56.8605 96 82.9902ZM91.2 83.2145C91.2 109.351 72.0736 130.539 48.48 130.539C28.7069 130.539 12.0714 115.657 7.20232 95.4531C7.24401 95.3998 7.28667 95.3456 7.33029 95.2905C8.26355 94.1114 9.61846 92.5412 11.3034 90.9726C14.7461 87.7678 19.2089 84.9008 24.0411 84.8213C28.8908 84.7415 31.4218 86.6354 34.3977 88.9681L34.6086 89.1336C37.6404 91.5129 41.2195 94.3217 47.52 94.3217C51.5858 94.3217 54.7117 93.0422 57.1896 90.8769C59.578 88.7898 61.2342 85.989 62.6341 83.1933C63.2225 82.0184 63.7915 80.7889 64.3516 79.5785L64.3564 79.5683C64.4655 79.3324 64.5744 79.0972 64.6829 78.8634C65.3591 77.407 66.0371 75.9738 66.7805 74.5769C68.2673 71.7832 69.9638 69.2376 72.2396 67.1734C74.911 64.7504 78.3873 63.1591 81.314 62.1704C82.7316 61.6916 83.9779 61.3681 84.8742 61.1639C88.6874 69.2149 91.2 76.9113 91.2 83.2145ZM82.5853 56.5764C70.5781 33.6158 50.0576 9.3951 48.1441 7.15613C48.0641 7.06259 47.937 7.06294 47.8581 7.15736C45.1887 10.3517 5.76 57.9629 5.76 83.2145C5.76 85.2088 5.87136 87.1743 6.08756 89.1037C6.64349 88.5196 7.24764 87.917 7.89657 87.3129C11.6539 83.8151 17.2711 79.9321 23.9589 79.822C30.6292 79.7123 34.3382 82.5684 37.4823 85.0331L37.5335 85.0732C40.5519 87.4393 42.953 89.3217 47.52 89.3217C50.4142 89.3217 52.3612 88.4561 53.8995 87.1119C55.5272 85.6896 56.8304 83.6165 58.1633 80.9546C58.714 79.855 59.2446 78.7085 59.8046 77.4986C59.9177 77.2544 60.032 77.0075 60.1478 76.7579C60.8287 75.2913 61.5549 73.7531 62.3666 72.2278C63.9902 69.1772 66.0078 66.0754 68.8804 63.4699C72.2728 60.393 76.4765 58.527 79.7138 57.4334C80.7735 57.0754 81.7489 56.7939 82.5853 56.5764Z" fill="#0047AB"/>
<defs>
<linearGradient id="paint0_linear_2_108" x1="91" y1="69" x2="9.38381" y2="101.975" gradientUnits="userSpaceOnUse">
<stop stop-color="#006AFF" stop-opacity="0.08"/>
<stop offset="1" stop-color="#0047AB"/>
</linearGradient>
</defs>
</svg>
